# xmcd
#
# Track frame offsets:
# 150
# 10083
# 22651
# 31298
# 35957
# 47019
# 59579
# 74630
# 94184
# 106743
# 120543
# 121447
# 128370
# 132794
# 144333
# 151677
# 162090
# 166814
# 178624
# 183288
# 197641
# 210235
# 219559
# 229339
# 234231
# 246452
# 252960
# 265155
# 276839
# 285924
# 300523
# 307746
# 315789
# 324158
# 334466
# 336929
#
# Disc length: 4666 seconds
#
# Revision: 0
# Processed by: cddbd v1.5.1PL2 Copyright (c) Steve Scherf et al.
# Submitted via: Audion 3.0.2 (http://www.panic.com/audion/)
#
DISCID=e6123824
DTITLE=i - smix
DYEAR=1900
DGENRE=
TTITLE0=j
TTITLE1=j
TTITLE2=j
TTITLE3=j
TTITLE4=j
TTITLE5=j
TTITLE6=j
TTITLE7=j
TTITLE8=j
TTITLE9=j
TTITLE10=j
TTITLE11=jj
TTITLE12=j
TTITLE13=j
TTITLE14=j
TTITLE15=j
TTITLE16=j
TTITLE17=j
TTITLE18=j
TTITLE19=j
TTITLE20=j
TTITLE21=j
TTITLE22=j
TTITLE23=j
TTITLE24=j
TTITLE25=j
TTITLE26=j
TTITLE27=j
TTITLE28=j
TTITLE29=,
TTITLE30=jj
TTITLE31=j
TTITLE32=j
TTITLE33=j
TTITLE34=j
TTITLE35=j
EXTD=
EXTT0=
EXTT1=
EXTT2=
EXTT3=
EXTT4=
EXTT5=
EXTT6=
EXTT7=
EXTT8=
EXTT9=
EXTT10=
EXTT11=
EXTT12=
EXTT13=
EXTT14=
EXTT15=
EXTT16=
EXTT17=
EXTT18=
EXTT19=
EXTT20=
EXTT21=
EXTT22=
EXTT23=
EXTT24=
EXTT25=
EXTT26=
EXTT27=
EXTT28=
EXTT29=
EXTT30=
EXTT31=
EXTT32=
EXTT33=
EXTT34=
EXTT35=
PLAYORDER=
